<svg xmlns="http://www.w3.org/2000/svg" viewBox="0 0 29.38 29.11"><title>homepage_mockup_layers</title><g id="b7d7b37f-979c-4dd8-9f24-f912988da69c" data-name="nav bar"><path d="M19.89,14.7a5.08,5.08,0,0,1-5.18,5,5.08,5.08,0,0,1-5.19-5,4.74,4.74,0,0,1,.22-1.42H8.21v7a.66.66,0,0,0,.66.65H20.48a.66.66,0,0,0,.66-.65v-7H19.68A5.08,5.08,0,0,1,19.89,14.7Z"/><path d="M14.71,17.73a3.22,3.22,0,1,0-3.35-3.21A3.28,3.28,0,0,0,14.71,17.73Z"/><path d="M18.5,11.4h1.88a.76.76,0,0,0,.76-.75V8.87a.75.75,0,0,0-.76-.74H18.5a.75.75,0,0,0-.75.74v1.78A.76.76,0,0,0,18.5,11.4Z"/><path d="M14.69,0A14.56,14.56,0,1,0,29.38,14.55,14.63,14.63,0,0,0,14.69,0ZM23,20.69a2.14,2.14,0,0,1-2.14,2.12H8.49a2.14,2.14,0,0,1-2.14-2.12V8.41A2.14,2.14,0,0,1,8.49,6.29h12.4A2.14,2.14,0,0,1,23,8.41Z"/></g></svg>