<svg id="fa015f40-7942-47cb-a50a-81ebb020e76d" data-name="footer" xmlns="http://www.w3.org/2000/svg" viewBox="0 0 15.45 15.45"><defs><style>.b5d61f2a-9d43-41d1-859d-f7fcda73f932{fill:#b0d4b2;}</style></defs><title>homepage_mockup_layers</title><path class="b5d61f2a-9d43-41d1-859d-f7fcda73f932" d="M10.46,7.8a2.68,2.68,0,0,1-2.73,2.64A2.64,2.64,0,0,1,5.12,7.05h-.8v3.7a.35.35,0,0,0,.34.35h6.11a.35.35,0,0,0,.35-.35V7.05h-.77A2.67,2.67,0,0,1,10.46,7.8Z"/><path class="b5d61f2a-9d43-41d1-859d-f7fcda73f932" d="M7.73,9.41A1.71,1.71,0,1,0,6,7.71,1.73,1.73,0,0,0,7.73,9.41Z"/><rect class="b5d61f2a-9d43-41d1-859d-f7fcda73f932" x="9.33" y="4.32" width="1.78" height="1.73" rx="0.39"/><path class="b5d61f2a-9d43-41d1-859d-f7fcda73f932" d="M7.72,0a7.73,7.73,0,1,0,7.73,7.72A7.72,7.72,0,0,0,7.72,0Zm4.39,11A1.14,1.14,0,0,1,11,12.11H4.47A1.14,1.14,0,0,1,3.34,11V4.47A1.14,1.14,0,0,1,4.47,3.34H11a1.14,1.14,0,0,1,1.13,1.13Z"/></svg>