<svg xmlns="http://www.w3.org/2000/svg" viewBox="0 0 156.6 156.53"><defs><style>.bbdf4a32-86d7-4fd9-a51f-8a41d23730df{fill:#d7ebe5;}.b4045444-1795-4ba6-99b7-d4f3e8c33a70{fill:#606163;}</style></defs><title>homepage_mockup_layers</title><g id="eca6984e-05c6-4dd3-92fa-299536d7cc1e" data-name="my work"><circle class="bbdf4a32-86d7-4fd9-a51f-8a41d23730df" cx="85.43" cy="85.36" r="71.18"/><path class="b4045444-1795-4ba6-99b7-d4f3e8c33a70" d="M138.38,72.07c0-.18,0-.35.05-.53a3,3,0,0,0-.15-1.45c-.66-1.45-4.44-.51-5.69-.4-1.7.16-3.44.1-5.16.12L116.72,70l-11.39.17-5.69.08c-1.08,0-4.27.56-4.94-.16.48-.11,1-.73,1.47-.53.14,0,1.9-.45,3.11-.49.9,0,2-.11,3-.2,1.64-.14,3.34-.06,5-.11,3.21-.11,6.42-.27,9.62-.5q7.17-.49,14.29-1.37c1.42-.17,4.33.46,5.51-.41,1.64-1.2.31-4.56.31-6.23,0-1.48-7,.34-8,.51q-5.37.87-10.78,1.55A301,301,0,0,1,85.44,64.2a268.08,268.08,0,0,1-33-1.2,88.39,88.39,0,0,1-13.25-2.78c2.65-.5,5.58.05,8.23.34,2.32.25,4.63.48,7,.68q6.8.57,13.61.83,11.77.43,23.54-.1c3.54-.17,6.93.14,10.48-.24,3.8-.41,7.58-1.06,11.38-1.46q6-.63,11.93-1.31c3.24-.37,7-.33,9.86-2a1.11,1.11,0,0,0,.67-1.09c0-1.16-.1-2.34,0-3.49a7.61,7.61,0,0,0-.4-2.65c-.09-.37-.23-.72-.35-1.09-.44-1.35-8.64,0-10.11.11l-12.45.81c-4.9.32-9.81.59-14.68.73-5.29.15-10.68,1.16-16,1.62q-9.45.83-18.93,1.32c-4.13.22-8.5.81-12.59.43q-7-.64-14-1.06-8.51-.51-17-.66-4.35-.09-8.68-.07c-2.24,0-5.27-.39-7.37.4-.15,0-.36-.11-.54-.16-.51-.12-.57-.1-.74.3A16.13,16.13,0,0,0,.93,56.88C.85,57.45.8,58,.72,58.59.4,61,7.77,60.1,9.41,60.21c4,.27,8,.74,12,1.41a122.87,122.87,0,0,1,14.42,3.31c4.67,1.38,9.1,3.44,13.74,4.84a21.61,21.61,0,0,0,2.53.87c.9.15,1.7.57,2.57.78,1.05.26,2.1.55,3.14.84a85.9,85.9,0,0,0,20.82,3.43c3.89.12,7.79.13,11.68.35,3,.16,8.08-.11,10.71,1.45-2,1.3-5.88.88-8.12,1q-5.91.26-11.83.07-6.77-.22-13.48-1.06C63.33,77,59.24,76.07,55,76.07c-10.08,0-20.16.07-30.24,0-5-.06-10.09-.15-15.12-.32-2.34-.07-5.23-.69-7.53-.3s-1.85,3.22-1.37,5A28.55,28.55,0,0,1,2.1,85.76a.48.48,0,0,0,.53.45c9.49.24,19-.63,28.52-.45,10.37.2,20.78,1.66,31.11,1.66,1.92.07,3.86-.24,5.77.19,2.71-.82,5.94-.66,8.75-.81,3.21-.17,6.43-.26,9.64-.28,7.45,0,14.87.64,22.31.72q6.64.08,13.27-.25c4.12-.21,8.32-.95,12.43-.8A1.49,1.49,0,0,0,136.15,85a11.59,11.59,0,0,0,.83-4.31C136.88,77.86,138.06,74.92,138.38,72.07Z"/><path class="b4045444-1795-4ba6-99b7-d4f3e8c33a70" d="M128.42,33.39a5.1,5.1,0,0,1-.35-1.1c-.19-1.21-1-2.05-1.63-3-.24-.38-.56-.71-.77-1.1A9.29,9.29,0,0,0,124,26c-.4-.41-.75-.87-1.13-1.31a3.51,3.51,0,0,0-.51-.57c-.87-.67-1.79-1.27-2.6-2a1.76,1.76,0,0,0-1.39-.48c-15.37,1.14-30.9,1.91-46.36,2.17q-8.37.15-16.76.4-16.76.53-33.49,1.53c-2,.13-4.07.16-6.1.23A3.45,3.45,0,0,0,13,28.14c-.56,2,2.86.55,4,.52,2.8-.1,5.6-.14,8.4-.19q8.4-.15,16.8-.2,16.8-.07,33.6.29,15.12.33,30.23,1c-2.56-.12-5.37.54-7.94.73q-4.14.32-8.28.49c-5.53.26-11.07.37-16.61.41-11.09.09-22.17-.1-33.26,0-6,.07-12,.24-17.93.6q-4.47.27-8.94.69c-2.84.26-3.75.94-5.18,3.48a6.66,6.66,0,0,0-.39.86A.54.54,0,0,0,8,37.6c18.15-.12,36.39-.05,54.58.38a107.7,107.7,0,0,1-16.23,1.86c-12.25.59-24.77.28-37.11.11A18.19,18.19,0,0,0,6,40.38a.86.86,0,0,0-.79.75c-.13,2-1.33,4.33-2.15,6.12-.35.75-.42,1.84.31,2.24a1.9,1.9,0,0,0,1.25.09,61.26,61.26,0,0,1,11.33-.43l12.11.28c4.89,0,9.79.22,14.69.34l7.67.17c1.58,0,4-.69,5.42-.22,1.77.56,4-.25,5.69-.66,2.07-.49,4.12-1.08,6.13-1.76a64.33,64.33,0,0,0,6.62-2.65c1.53-.71,2.79-1.8,4.36-2.33a57.48,57.48,0,0,1,6.49-1.61c4.26-.9,8.58-1.54,12.9-2.06,8.7-1,17.45-1.52,26.14-2.51a8.53,8.53,0,0,0,3.47-.92C128.83,34.48,128.69,34.07,128.42,33.39Z"/><path class="b4045444-1795-4ba6-99b7-d4f3e8c33a70" d="M134.2,89.85A.94.94,0,0,0,133,89a4.89,4.89,0,0,1-3.18,0,23.63,23.63,0,0,0-5.38,0q-3.53.16-7.06.29-7.05.24-14.11.29-10.17.06-20.34-.27c-3-.1-6.1-.49-9-.1-2.38.32-4.57-.24-7-.36-2.79-.14-5.58-.27-8.38-.37q-8.38-.31-16.77-.42Q31.84,88,22,88.2c-6.1.1-11.95.47-18,0a1.44,1.44,0,0,0-1.21.29c-.34.39-.15,1,.06,1.47,1.62,3.76,2.27,7,7,6.79a38,38,0,0,1,6.14.5A27.59,27.59,0,0,0,20,97.1c2.63-.12,5.27-.24,7.9-.32,5.27-.17,10.54-.24,15.81-.07,10.43.33,20.9,1.61,30.87,4.84-2-.65-4.59-.47-6.69-.73s-4.27-.6-6.4-.72q-3.49-.21-7-.38-6.85-.31-13.72-.43-7.5-.14-15,0c-5.7.07-11.23.32-16.93-.15a1.77,1.77,0,0,0-1.34.25,1.39,1.39,0,0,0-.36,1.16c.16,2.09,2.31,3.49,4.37,3.85a47.31,47.31,0,0,0,9.74.17c3.66-.15,7.33-.28,11-.34a181.92,181.92,0,0,1,18.39.54c5.78.5,11.55,1.62,17.39,2.09a308.59,308.59,0,0,0,33,.87c8.75-.36,17.72-.8,26.27-1.7.24-.38.5-.74.72-1.12a13.48,13.48,0,0,1,1.07-2,1.33,1.33,0,0,0,.21-1.36c-.38-1.58-4.71-.11-6.11.07-2.51.33-5,.57-7.57.72a111.59,111.59,0,0,1-15.19-.12A111.59,111.59,0,0,1,70.8,95.75c-1.61-.6-3.22-1.23-4.81-1.9,5.23,0,10.28,1.67,15.34,3a98.28,98.28,0,0,0,24.26,3A96.87,96.87,0,0,0,118,99.09c3.82-.48,7.65-1.61,11.48-1.62C132.88,97.46,134.34,92.61,134.2,89.85Z"/><path class="b4045444-1795-4ba6-99b7-d4f3e8c33a70" d="M14.36,106.4c9.58,0,19.17.09,28.75.58,4.9.26,9.79.6,14.68,1.08,4.73.45,9.35,1.74,14.09,1.79q7.89.08,15.78,0,8.88-.09,17.76-.36,4.35-.14,8.71-.32c2.94-.12,5.89,0,8.85-.06a2.3,2.3,0,0,1,1.42.28c.76.54.57,1.74.12,2.56a20.29,20.29,0,0,1-3.43,3.93,8.48,8.48,0,0,1-2.41,2.07c-2.94,1.32-8.18.28-11.36.16q-6.39-.25-12.79-.35c-10-.17-20.08,0-30.12.19-7.46.14-14.93.43-22.4.59-3.78.08-7.58.12-11.37.1-3.46,0-6.91-.54-10.33-.59a.89.89,0,0,1-.51-.24c-1.79-1.58-3.73-3-5.44-4.64a27.64,27.64,0,0,1-3.5-4.36,2.21,2.21,0,0,1-.27-1.48.92.92,0,0,1,.85-.89c.33,0,.65,0,1,0Zm5.07.63-.12-.08v.12Zm-.77,0-.13-.07v.12Z"/><path class="b4045444-1795-4ba6-99b7-d4f3e8c33a70" d="M75,20.82l-2,0c-6.05,0-12.1.34-18.14.7l-19.1,1.15c-3,.18-6.34.86-9.28.46-2.15-.29-4.29-.5-6.47-.67a1.35,1.35,0,0,1-.66-.17.94.94,0,0,1,0-1.35c.66-.71,1.76-.94,2.49-1.69a74.22,74.22,0,0,1,7.17-5.93c3.95-3.16,10.67-1.39,15.42-1.27q7.52.2,15,.07,8.85-.13,17.68-.74c2.88-.19,5.77-.43,8.65-.69,6-.56,12.1-.62,18.14-.84,3.28-.12,4.41,1.56,7,3.09a18.44,18.44,0,0,1,2.68,1.88c.78.67,1.65,1.23,2.46,1.86.46.36.89.76,1.31,1.15a.55.55,0,0,1-.13.83,1.58,1.58,0,0,1-.68.3c-.52,0-1,0-1.55,0a7.94,7.94,0,0,0-3.25.32c-3-.07-6,1.1-9,1.46a88,88,0,0,1-9.87.55C86.89,21.31,80.92,20.92,75,20.82Z"/><path class="b4045444-1795-4ba6-99b7-d4f3e8c33a70" d="M78.77,127.85c-4.6.48-9.62-.58-14.26-.95-10.79-.87-21.89-2-32.7-1.76-1,0-1.95,0-2.92,0a2.25,2.25,0,0,1-1.44-.43,23.61,23.61,0,0,1-4-3.3,1.36,1.36,0,0,1-.39-1.24c.06-.28.16-.48.48-.49,3.5-.15,7.24.27,10.8.31q6.22.08,12.45.19,7.52.13,15.05.32c8.82.23,17.64.27,26.46.26q6.7,0,13.42,0l6.7,0c1.38,0,4.3.57,5.53,0,.37-.18.61.07.9.16s.31.22.13.4a12.06,12.06,0,0,1-3.91,3.07c-.06,0-.14,0-.18.06-1.24,1.17-2.72,1.24-4.32,1.14-4.13-.28-8.57.93-12.69,1.37-5,.52-10,.45-15,1Z"/><path class="b4045444-1795-4ba6-99b7-d4f3e8c33a70" d="M69,49.71a1.45,1.45,0,0,1,.65-.89c2.76-2.09,5.72-3,9-3.89q3.57-1,7.19-1.89,7.36-1.8,14.87-3.07c6.52-1.1,13.1-1.91,19.7-2.4,1.65-.13,3.3-.23,5-.32,1.22-.06,3.78-.66,4.89-.11,2,1,2.54,4.83,3.47,6.62a6.3,6.3,0,0,1,.41,1.86.61.61,0,0,1-.79.68c-1-.3-1.79.13-2.78.29a20.59,20.59,0,0,1-3.6,0q-4-.06-8,0-8,.08-16,.55-8.61.51-17.19,1.46c-5.22.58-10.32,1.79-15.6,1.84-.47,0-1.06-.07-1.21-.52A.5.5,0,0,1,69,49.71Z"/><path class="b4045444-1795-4ba6-99b7-d4f3e8c33a70" d="M52.63,72.45c-1.44-.72-3.77-.88-5.35-1.33-2.19-.63-4.37-1.3-6.55-2-4.45-1.34-8.92-2.68-13.47-3.65s-9-1.84-13.52-2.48c-3.94-.55-8.45-1.61-12.35-.54-.71.2-.89.39-.9,1,0,2-1.2,7.47.19,9a2.32,2.32,0,0,0,.71.53c1.93.85,5.85-.44,8.06-.33q6.35.32,12.72.52,7.32.24,14.65.31c5.09.06,10.18.09,15.27.28a1.18,1.18,0,0,0,1-.26.81.81,0,0,0-.35-1.14Z"/><path class="b4045444-1795-4ba6-99b7-d4f3e8c33a70" d="M50.15,3.43c4.34-.24,9,.74,13.15.84a139.06,139.06,0,0,0,20.19-1A23,23,0,0,1,88.8,3c2.93.3,6,1.62,8.77,2.59.42.15.92.41.89.85s-.68.68-1.18.71L80.82,8.1,60,9.3c-8.15.47-16.31.34-24.46.31a.77.77,0,0,1-.65-.21c-.26-.36.22-.79.63-1A108.4,108.4,0,0,1,45.86,4.19,16.57,16.57,0,0,1,50.15,3.43Z"/><path class="b4045444-1795-4ba6-99b7-d4f3e8c33a70" d="M35.87,127c6.64,0,13.35,1,20,1.69,6.12.6,12.25,1.19,18.39,1.34A136.36,136.36,0,0,0,100,128a18.38,18.38,0,0,1,4-.58,1.27,1.27,0,0,1,.54.14c.06,0,.11.29.07.31-.2.13-.44.2-.64.33a33.53,33.53,0,0,0-2.87,1.94,16.69,16.69,0,0,1-2,1.21c-1.51.92-4.53.59-6.25.72q-3.8.27-7.59.43-7.75.31-15.53.17-8.69-.17-17.34-.93c-3-.27-6-.58-9-.95-2.48-.31-5.32-1.24-7.81-1.06-1-.63-2.31-.83-3.06-1.9a.5.5,0,0,1,.23-.63,3.18,3.18,0,0,1,.74-.17C34.32,127,35.09,127,35.87,127Z"/><path class="b4045444-1795-4ba6-99b7-d4f3e8c33a70" d="M73.82,138.18c-1.1.07-2.21.11-3.32.12a78,78,0,0,1-13.56-1c-2.34-.38-4.67-.87-7-1.46a8.23,8.23,0,0,1-2.62-1c-.73-.49-1.19-1.32-1.93-1.74,0,0,0-.1,0-.11s.11-.11.16-.1c1.23,0,2.45,0,3.68,0,1,.62,2.87.39,4,.48,1.77.14,3.55.27,5.32.38,3.45.21,6.89.37,10.34.46a191.6,191.6,0,0,0,22-.55c.13,0,.31.2.44.34s0,.38-.15.46c-.54.27-.84.85-1.36,1.1a13.27,13.27,0,0,1-2.3.53c-1.82.44-3.66.81-5.5,1.12A77.3,77.3,0,0,1,73.82,138.18Zm-13.35-3.57.11.07,0-.13Z"/><path class="b4045444-1795-4ba6-99b7-d4f3e8c33a70" d="M76.88,2.62a59,59,0,0,1-8,.29c-2.46,0-4.91,0-7.36,0-2.08,0-4.29.29-6-1a.56.56,0,0,1-.15-.5.62.62,0,0,1,.41-.3A51.47,51.47,0,0,1,68.47,0C69.65.08,79.24.45,79,1.81,78.84,2.41,77.31,2.56,76.88,2.62Z"/></g></svg>