<svg id="aa22c292-0a68-439a-8ee3-68247732186b" data-name="footer" xmlns="http://www.w3.org/2000/svg" viewBox="0 0 15.45 15.45"><defs><style>.acd9b53a-901a-4cee-a968-43e694ae74b7{fill:#b0d4b2;}</style></defs><title>homepage_mockup_layers</title><path class="acd9b53a-901a-4cee-a968-43e694ae74b7" d="M7.72,0a7.73,7.73,0,1,0,7.73,7.72A7.72,7.72,0,0,0,7.72,0Zm5.1,7.35s0,.57-1.23.57c0,0-1,3-3.54,3.41-3.06.5-5.2-1-5.43-2.05,0,0,2,1.77,3.64,0a.84.84,0,0,1-.44-.13.8.8,0,0,1-.22-.38s.5-.28.31-.49c0,0-1.11,0-1.17-.7l.65-.42a.61.61,0,0,1-.51,0s-.66-.47-.53-1l.55,0s-1-.68-.69-1.2c0,0,.09-.45,3.25,1.65,0,0,.56-2,1.58-2.42,0,0,.17.08.17.17s.15-.31.34-.34c0,0,.23.2.08.32s.39-.27.59-.13c0,0,0,.23-.58.53,0,0,1.46.08,2,2a1.51,1.51,0,0,0,1.22-.16s.05.29-.87.7C12,7.32,12.05,7.45,12.82,7.35Z"/></svg>