<svg id="a1d43fca-7915-46be-8577-6064a68131aa" data-name="footer" xmlns="http://www.w3.org/2000/svg" viewBox="0 0 15.45 15.45"><defs><style>.a2acb431-6810-414e-a13a-d6cf3d8191d6{fill:#b0d4b2;}</style></defs><title>homepage_mockup_layers</title><path class="a2acb431-6810-414e-a13a-d6cf3d8191d6" d="M7.72,0a7.73,7.73,0,1,0,7.73,7.72A7.72,7.72,0,0,0,7.72,0ZM9,10.42a1.73,1.73,0,0,1-1.49-.76s-.35,1.41-.43,1.68a6.47,6.47,0,0,1-1.1,2,.08.08,0,0,1-.14,0,6.76,6.76,0,0,1,0-2.32c.12-.49.79-3.32.79-3.32a2.31,2.31,0,0,1-.2-1c0-.9.53-1.58,1.18-1.58A.82.82,0,0,1,8.48,6,13.15,13.15,0,0,1,8,8.19a.94.94,0,0,0,1,1.18c1.15,0,1.93-1.48,1.93-3.24A2.28,2.28,0,0,0,8.3,3.79a2.89,2.89,0,0,0-3,2.92,1.8,1.8,0,0,0,.4,1.2.28.28,0,0,1,.09.34c0,.11-.1.38-.12.49a.21.21,0,0,1-.31.15A2.35,2.35,0,0,1,4.11,6.56,4,4,0,0,1,8.47,2.75a3.64,3.64,0,0,1,3.86,3.49C12.33,8.64,11,10.42,9,10.42Z"/></svg>