<svg xmlns="http://www.w3.org/2000/svg" viewBox="0 0 157.1 157.02"><defs><style>.bb1da949-39b5-485a-bdf5-104f782ac83c{fill:#d7ebe5;}.b1399696-c018-4c65-a6d9-39cc1e967e23{fill:#606163;}</style></defs><title>homepage_mockup_layers</title><g id="a8564994-2f64-41ad-96d1-9a64be04c770" data-name="my work"><circle class="bb1da949-39b5-485a-bdf5-104f782ac83c" cx="85.92" cy="85.85" r="71.18"/><path class="b1399696-c018-4c65-a6d9-39cc1e967e23" d="M139.38,75.62a2.34,2.34,0,0,0-.09-.24c-.54-1.23-1.33-.79-2.42-.54-3.22.75-6.22,2-9.41,2.82-1.68.4-3.69.67-4.39-1.25-1.09-3,1.3-7.37,2.43-10,.66-1.57,1.21-3.29,2.57-4.39,2.15-1.74,5.15-1.88,7.64-2.84,2.19-.83,3.89-4.28.36-3.47-2,.45-3.79,1.53-5.8,1.92-6,1.16-2.17-6.43-1.17-9.27.57-1.59,1.2-3.16,1.87-4.7.55-1.28,1.71-2.69,1.64-4.13-.05-1.18-1.19-4.13-2.64-3.8s-2.33,3.41-2.76,4.61c-1.2,3.35-2,6.81-3.45,10.07-1.2,2.68-2.28,5.3-3.3,8-.91,2.45-2.06,3.84-4.79,3.83-1.28,0-5.19-.19-6.11-1.3-1.41-1.71,2.56-6.42,3.38-7.82,1.79-3.06,3.5-6.18,5.24-9.27,1.56-2.79,2.36-6.05,4.16-8.7,1.36-2,3.81-3.87,3.2-6.6s-2.48-3.44-3.77-.95c-1.45,2.79-2.89,5.55-4.52,8.23-.56.92-1.39,2.87-2.6,3.06-1,.14-2.3-1-3-1.5-2-1.54-3.85-4-3.2-6.62.72-2.91,3.4-4.84,4.81-7.37,1.07-1.92,3.26-4.33,1.45-6.41-2.78-3.2-4.68,6-7.31,2.46-1.69-2.28,2.18-8.06-1.31-9.06-2.5-.72-4,3.09-5.35,4.48-2,2.06-4.3,3.91-6.46,5.78a39.21,39.21,0,0,1-6.08,4.83c-1.6.89-3.42,1.18-4.09-.93-.36-1.15,0-2.48,0-3.66a11.6,11.6,0,0,1,0-3.43c.58-2,2.85-3.06,4.49-4,2.35-1.34,4.66-2.71,6.88-4.26,1-.73,3.49-2,2.6-3.45-.73-1.19-3.13-1.7-4.28-1.22-2.81,1.2-9,8.67-12,5.85C80,8.75,80,5.55,80.18,3.35S80.78-.07,78.1,0c-4,.11-1.73,6.13-1.61,8.65.25,5.35-3.83,7.5-8.34,8.92-2,.64-3.94,1.33-5.91,2.11-2.57,1-3.91-.34-4.55-2.85a25.39,25.39,0,0,1-.4-7.68c.12-1.88,1-4.39.73-6.24-.34-2.27-2.59-1.63-4.19-1.06C51.54,2.68,51.75,3.1,52,5.42c.26,3,.72,5.92.93,8.9.18,2.4.55,5.39-.69,7.59s-3.67,2.65-5.92,3.28c-1.91.54-4.27,1.68-5.59-.47C39.57,22.88,40,20.06,40,18a25,25,0,0,1,.79-7.15c.39-1.47,1-3-1-3.36-2.41-.43-3.33.86-3,2.93a25.5,25.5,0,0,1-3,15.53c-2.1,3.63-7.4,6.33-10.9,2.8-1.73-1.74-1.55-3.86-1.82-6.07-.3-2.57-2.72-1.36-3.29.58-1.07,3.7,3.43,8.49-2.07,10.19-1.75.54-4-.28-5.54.84C9.17,35,8.58,36.67,8,37.79c-.35.72-3.33,6.82-.72,6.14,2-.53,3.52-2.45,5.38-.15,1.19,1.46,1.56,3.78,2.09,5.55,1.39,4.59,2.39,10.47,1.59,15.27-.42,2.5-5.72,5.45-8,4C4.84,66.43,6.1,59.87,2.28,58.29a9.19,9.19,0,0,0-1,6.11c.7,2.5,3.17,4.39,1,7C1.6,72.34.44,72.65.1,73.83A4.9,4.9,0,0,0,.52,77c1.38,2.21,3.81.13,5.46-.55,2.26-.92,4.72-.61,5.71,1.78a72.12,72.12,0,0,1,3.17,9.4C16.37,93.49,8,90.78,6.56,95c-.9,2.62,2.12,4,4.12,3.2,2.72-1.09,4.75-2.38,7.79-1.27,2.75,1,3.71,3.4,4.08,6.11.16,1.17.57,2.73,0,3.83s-2.37,1.9-3.45,2.62c-2.2,1.46-4.65,3.5-2,6,2.24,2.12,3.49.13,5.23-1.4,4-3.51,9.35-6.55,14.69-4.72,4.44,1.52,12.95,6.36,9.37,12.11-.72,1.16-1.69,2.16-2.36,3.35-.79,1.37-1.22,2.78-2.34,4-.74.78-2.14,1.53-1.75,2.81.29.95,1.73,1.48,2.6,1.65,2.66.53,3.36-2.73,4.49-4.6a31.22,31.22,0,0,1,5.25-6.79,16.33,16.33,0,0,1,16.16-3.7,31,31,0,0,1,6.46,3.23c2.88,2,1,3.81.13,6.35-1.06,3-1.79,5.85-3.4,8.61-.44.76-1.5,2.12-.49,2.79.48.32,2.76.16,3.36.16,2.49,0,3-2.19,3.66-4.27a17.24,17.24,0,0,1,2.77-6.05c1.73-2.24,6.74-5.73,7-.76.08,1.95-1.83,6.76-.58,8.4,1,1.38,3.35-.47,3.8-1.63s.35-2.68.62-3.92a23.41,23.41,0,0,1,1.38-4.55c2.43-5.53,8.19-7,13.22-9.27,2.17-1,8.79-5.73,9-1.08a17.08,17.08,0,0,1-.38,3.63c-.17,1-1.21,2.68-1.15,3.58.2,2.8,4.16-1.83,4.7-2.62,3.26-4.72.5-12.41,4.92-16.35,2.24-2,5.06-2.3,7.69-3.42,1.2-.5,4.35-4,2.58-5.16-1.56-1-6.84,2.21-8.71,2.34-2.32.15-3.29-1.19-3.53-3.36a17.8,17.8,0,0,1,1.2-8.79c1.17-2.54,3.59-3.22,6.07-4,1.69-.51,3.36-1.09,5.06-1.59,1.43-.43,3.06-.57,4.23-1.58A3.57,3.57,0,0,0,139.38,75.62ZM108.88,39.8a7,7,0,0,1,2.89,5.66c.09,5.88-6.35,13.36-8.88,18.52-1.88,3.82-3.4,9.73-8.66,6.88C81,63.71,94.81,48,100.55,40.91A6,6,0,0,1,108.88,39.8ZM93.27,80.51c-.17,2.58-1.24,5.38-3,6.32-2.6,1.34-8.33-2.5-10.55-3.71-3.66-2-7-5.45-5.27-9.85,1.45-3.67,5.79-7.52,9.68-4.61,2.62,2,6.68,5.08,8.44,7.78A7,7,0,0,1,93.27,80.51ZM85.49,37.12c.4-3.51,3.39-6.29,6.35-8.61s7.28-7.87,11.66-7c5.36,1,1.32,7.34-.58,9.56-3,3.51-5,6.91-7.63,10.66-2.83,4-7,4.32-9.14-.57A7.71,7.71,0,0,1,85.49,37.12Zm-2,7.94c1.29,3.12,3,7.07,1.25,10.19-2.54,4.58-7.22-1.45-8.67-3.82-2.7-4.41-3.67-10.69,2.8-12.08,3-.64,3.08,1.83,4.15,4.55C83.2,44.27,83.36,44.66,83.53,45.06ZM57.68,30.17c1.06-5.62,7.54-6.65,12.1-8.08,2-.63,5-2.81,7-2.85,2.79-.06,2.6,2.43,3,4.67s2,5.2,1,7.36c-1.06,2.37-4,3.82-6.12,5-2.7,1.55-9.63,8.13-12.84,7.64-4.24-.65-4.45-9.35-4.33-12.42A9.16,9.16,0,0,1,57.68,30.17ZM56.23,55.32a61.41,61.41,0,0,0,6.38-3.23c4.68-3.11,10-2,12,3.81,2.16,6.15-1.06,9.26-5.23,13.12-3.14,2.9-8,10.06-12.47,7.4-3.6-2.16-6.81-6.68-8.27-10.55C46.65,60.56,51.4,57.65,56.23,55.32Zm-5.15,26c.05.41.09.8.1,1.18.08,2.67-.88,6.76-4.31,6s-4.49-6.22-6-8.9c-2.16-3.93-7.25-8.82-4.55-13.7,1.55-2.83,3.72-2.38,5.9-.52C46,68.55,50.35,75.92,51.08,81.28Zm3-36.28c2.72,4-5.77,8-8.58,9.4C40.11,57,34.35,60.89,28.28,61.53c-4,.42-9.53-2-7-6.83s10.54-5.22,15.11-7.3c4.41-2,11.73-7.23,16.52-3.55A5.14,5.14,0,0,1,54.08,45Zm-36.3-1c-.84-4.36,10.65-8,13-8.78q7.88-2.46,15.68-5c2.68-.86,5.66-.66,6.19,2.76.46,3-2.36,4.9-4.68,6.12-5.51,2.91-12.3,4.45-18.21,6.45-2.49.84-9.24,2.27-11.26-.08A3.28,3.28,0,0,1,17.78,44ZM39.33,95.31c-1.69,4.35-5.75,8.35-10.5,7.12-4.91-1.26-6.44-7.61-8.26-11.62-2-4.36-5.51-9.39-4.74-14.43.72-4.8,6-7.63,10.57-6.62,8.36,1.85,14.13,14,13.76,21.85A12.15,12.15,0,0,1,39.33,95.31Zm19.07,8c-2.78,4.24-6.44,9.42-11.17,7-2.19-1.12-7-4-7-6.77-.05-4.37,5.19-6.5,8.22-8.56,4.81-3.27,8.83-7.54,12.9-11.65,1.44-1.45,5.15-5.15,7.37-4.6,3.68.9,3.22,4.93,2,7.28-2.62,5.26-7,9.67-10.49,14.48C59.71,101.31,59.08,102.29,58.4,103.33Zm21.45,12.06c-4,3-11.2-.22-14.91-2.61-6.09-3.93-.78-10.57,1.94-14.82,2.84-4.44,6.33-11.12,12.69-9.85,5.87,1.17,8.24,7.35,7,12.66-1,4.44-2.84,11.34-6.45,14.4Zm36.26-16.68a4.46,4.46,0,0,1,.8,1.51c2,6.15-7.51,11-11.81,13.12-5.25,2.59-11.79,9-18.16,7.72-6.11-1.24,2.33-12.11,4.7-13.64,3.6-2.32,8.09-2.75,11.85-4.76C106.3,101.16,113.27,95.4,116.11,98.71ZM119,74.31a27.78,27.78,0,0,1-.22,3.81c-.79,6.43-2.16,12.65-7.53,16.74-3.44,2.63-11.43,6.6-15.9,4.27-5-2.61,1.82-14.13,3.36-17.24,2.85-5.75,4.91-15.44,12.54-16.31C117.21,64.89,118.86,69.53,119,74.31Z"/></g></svg>