<svg xmlns="http://www.w3.org/2000/svg" viewBox="0 0 29.38 29.11"><title>homepage_mockup_layers</title><g id="eb49e32b-fda1-4a6a-84c3-6db4a4edaeb6" data-name="nav bar"><path d="M14.69,0A14.56,14.56,0,1,0,29.38,14.55,14.63,14.63,0,0,0,14.69,0ZM17.2,19.64a3.32,3.32,0,0,1-2.84-1.44s-.67,2.65-.82,3.16a12.37,12.37,0,0,1-2.09,3.77.16.16,0,0,1-.28-.07,13,13,0,0,1,0-4.37l1.49-6.26a4.43,4.43,0,0,1-.37-1.82c0-1.71,1-3,2.24-3a1.55,1.55,0,0,1,1.56,1.73,24.42,24.42,0,0,1-1,4.08,1.78,1.78,0,0,0,1.83,2.21c2.2,0,3.68-2.8,3.68-6.11,0-2.52-1.71-4.41-4.83-4.41a5.47,5.47,0,0,0-5.71,5.51,3.31,3.31,0,0,0,.76,2.25.56.56,0,0,1,.17.65c-.06.21-.18.72-.24.92a.4.4,0,0,1-.58.29c-1.62-.66-2.37-2.42-2.37-4.4,0-3.26,2.78-7.18,8.29-7.18,4.43,0,7.35,3.18,7.35,6.59C23.46,16.27,20.93,19.64,17.2,19.64Z"/></g></svg>