<svg xmlns="http://www.w3.org/2000/svg" viewBox="0 0 53.76 33.81"><defs><style>.ffd076fa-b79b-4a63-a3a4-d296442b74d3{fill:#2a6a7e;}</style></defs><title>homepage_mockup_layers</title><g id="a37367ad-9538-4bb8-926f-9e871cd493ff" data-name="testimonials"><path class="ffd076fa-b79b-4a63-a3a4-d296442b74d3" d="M.14,30.47c6.44-2.7,17.55-9.39,17.55-17,0-1,0-2.7-1.23-3s-1.65,1-2.34,1.93c-2.33,3.09-3.83,3.73-7,3.73C3.43,16.2,0,13.11,0,9.51,0,2.83,5.35,0,9.6,0c7.68,0,12.62,5.27,12.62,12.34,0,11.06-11.8,17.23-21,21.47Zm31.54,0c6.44-2.7,17.55-9.39,17.55-17,0-1,0-2.7-1.23-3s-1.65,1-2.33,1.93c-2.34,3.09-3.84,3.73-7,3.73-3.7,0-7.13-3.09-7.13-6.69,0-6.68,5.35-9.51,9.6-9.51,7.68,0,12.62,5.27,12.62,12.34,0,11.06-11.8,17.23-21,21.47Z"/></g></svg>