<svg xmlns="http://www.w3.org/2000/svg" viewBox="0 0 153.04 156.7"><defs><style>.b1112947-b45a-4fbd-9f43-8ba12b08e126{fill:#d7ebe5;}.b6e8fa48-19db-464d-abf3-a76cf358e289{fill:#3c3c3c;}</style></defs><title>homepage_mockup_layers</title><g id="bb3db4a5-c2ea-40bd-9a3e-d4589c1f4e6f" data-name="my work"><circle class="b1112947-b45a-4fbd-9f43-8ba12b08e126" cx="81.87" cy="85.52" r="71.18"/><path class="b6e8fa48-19db-464d-abf3-a76cf358e289" d="M130.89,65.09c.06-3.48.34-7,.42-10.44,0-1.69,0-3.38-.07-5.07-.09-1.33.08-3-.11-4.24-.06-.39-.47-.75-.84-.6s-.41.62-.41,1c0,1.14,0,2.29,0,3.43a10.1,10.1,0,0,1-.36,3.2c-.46,1.34-1.51,2.46-2.92,1.61-1.71-1-1.4-3.48-1.4-5.13,0-2.4,1.61-17.44-1.11-18a1.07,1.07,0,0,0-1.11.65c-.66,1.38,0,3-.06,4.44a3,3,0,0,1-.82,2.08c-.92.87-2.07.4-2.81-.44-.88-1-.73-2.19-.8-3.48-.08-1.6,1.23-9.45-.33-10.22-1.18-.58-.92,2.47-1,3.05-.2,4-.38,8-.35,12.06,0,1.75,1.18,8.26-2.68,6.71a3.51,3.51,0,0,1-2-2.69c-.47-2.58.18-5.49.14-8.12,0-3.75-.23-7.51-.24-11.26,0-1.88,0-3.75.14-5.62,0-.44.33-1.59.08-2-.37-.62-1.06-1-1.43-.06a2.73,2.73,0,0,0-.12,1.1c.06,2.62.72,11.89-3.64,11.86a2.4,2.4,0,0,1-2-1.49,7.08,7.08,0,0,1-.47-2.59c0-2.56-.27-5.17-.41-7.72-.08-1.41.1-2.82,0-4.23,0-.36-.59-4.3-1.55-2.93a1.28,1.28,0,0,0-.16.82c-.07,4.33.13,8.67.19,13,0,3.09,1.69,14.51-4.31,13.17-5.19-1.15-3.91-9.07-4-12.83Q94.43,15,94.33,5.9a1.37,1.37,0,0,0-.2-.87c-.4-.51-1.27-.2-1.64.34-.75,1.11-1.19,3.08-3.06,2.3A2.83,2.83,0,0,1,87.9,5a8.63,8.63,0,0,0,0-1.68c-.1-.56-.55-1.11-1.11-1.06A1.08,1.08,0,0,0,86,3a3,3,0,0,0-.1,1.2c.17,3.57.42,7.13.49,10.71.06,3,.43,6.85-.45,9.76a2.79,2.79,0,0,1-1.66,1.9c-1.35.45-2.82-.64-3.3-2-.9-2.49-.08-5.74-.14-8.37,0-2.42,0-4.85.18-7.27.12-2,.9-4.93.41-6.86a.85.85,0,0,0-.76-.66A.88.88,0,0,0,79.9,2a2.41,2.41,0,0,0-.15,1A72.22,72.22,0,0,1,79,13.78c-.47,2.76-2.82,10.82-7,6.34-1.8-1.91-1.35-5-1.45-7.38s-.06-4.56-.16-6.85c-.06-1.58.61-4.33-.79-5.54-.83-.71-1.65-.28-1.81.74a4.28,4.28,0,0,0,.11,1.55,7,7,0,0,1-.11,3.9,2.65,2.65,0,0,1-3.17,1.64A3,3,0,0,1,63,5.35c0-1.14.28-2.27.2-3.4A2.42,2.42,0,0,0,62.76.51,1.28,1.28,0,0,0,61.63.05a2.5,2.5,0,0,0-.24.22c.22,7.31.48,14.7.38,22,0,4.32.64,9.57-1.21,13.55a2.06,2.06,0,0,1-2.8,1.35,2.65,2.65,0,0,1-2.06-2.26,8.88,8.88,0,0,1-.14-2.3c.38-5.32.48-10.66.56-16,.08-5,.47-10,.08-15a1.19,1.19,0,0,0-.72-1A4,4,0,0,0,55,.32a.51.51,0,0,0-.72.4c-.12,1.88-.22,3.75-.33,5.63a2.65,2.65,0,0,0,0,.38,20.24,20.24,0,0,1-.31,6.63c-.32,1.69-.48,4.3-2,5.33a1.08,1.08,0,0,1-1.43-.52c-.62-1.11-.3-3-.34-4.22-.07-1.88-.24-3.75-.28-5.63,0-1.72.34-3.56-.19-5.22a1.83,1.83,0,0,0-.38-.73.77.77,0,0,0-.75-.22c-.42.15-.52.68-.6,1.12a4,4,0,0,1-2,2.93,5.21,5.21,0,0,1-1.12.52C43.32,7.29,42,6.14,41.67,5c-.08-.31-.18-.69-.49-.75s-.61.44-.64.84c-.15,1.84.47,3.67.16,5.51a1.82,1.82,0,0,0,0,.77,17.13,17.13,0,0,1,.21,4.53c0,2.08-.15,4.17-.19,6.25-.09,5.14.14,10.29.07,15.39a9.29,9.29,0,0,1-.67,2.6c-.55,1.4-1.32,2.41-3.11,1.67a9,9,0,0,1-2-1.18,6.11,6.11,0,0,1-2.27-4.71c-.09-1.34,0-2.69-.14-4-.68-7,0-14.11.26-21.08,0-.44,0-1-.44-1.15a.77.77,0,0,0-.9.39,6.82,6.82,0,0,0-.35,2.47,4.11,4.11,0,0,1-.16,1.34c-.63,1.29-.58,3-.95,4.4-.3,1.15-1.43,5.91-3,5.86-1.26,0-2.41,0-2.91-1.43a5.92,5.92,0,0,1-.15-2.3c.11-1.49.21-3,.31-4.46a1.76,1.76,0,0,0-.06-.79.6.6,0,0,0-.62-.4c-.36.06-.48.53-.53.9-.29,2.6-.46,5-.5,7.63l-.09,5.32c-.05,3.64-.4,7.29-.43,10.92,0,4.12-.3,8.13-.63,12.22-.14,1.77-.37,3.52-.68,5.27a2.19,2.19,0,0,1-1,1.73,1.45,1.45,0,0,1-1.58-.42,3.81,3.81,0,0,1-.78-1.54c-1-3.12-.65-6.14-.55-9.37.14-4.54.35-9,.66-13.56h0q.41-5.88.83-11.76a1.22,1.22,0,0,0-.24-1,.83.83,0,0,0-1.18.3,2.51,2.51,0,0,0-.24,1.36,27.36,27.36,0,0,1-1.24,8.13,6.76,6.76,0,0,1-1,2.16,2.78,2.78,0,0,1-2.88,1.07C10.13,33.7,9.81,32.27,9.28,31c-.2-.81-.73-1.47-1.37-.4-.53.88-.31,2.28-.29,3.26,0,1.56.11,3.12.09,4.68,0,3.36.2,7.52-1.37,10.55-.79,1.67-2.78,2.95-4,.82a4.35,4.35,0,0,1-.41-2.62c.1-.89-.08-1.77,0-2.66a2.28,2.28,0,0,0-.12-1.13c-.15-.36-.08-.65-.46-.65a1.06,1.06,0,0,0-.95,1c-.73,4.63-.22,9.48,0,14.14,0,2.79.24,5.62.36,8.4.15,3.62.62,7.37.51,11L1,84.88c-.06,1.79-.9,5.34,0,7a.82.82,0,0,0,1.14.38.79.79,0,0,0,.28-.45c.29-.16.15-1.2.39-1.41a4,4,0,0,0,.67-.63C4,89.42,5,90,5.59,90.2a2.35,2.35,0,0,1,1,.83c1.43,1.89,1.63,4.44,2,6.71A79.16,79.16,0,0,1,9,107.13a.62.62,0,0,0,.22.57c.33.2.66-.27.75-.64.51-1.92.24-3.68.23-5.61a36.07,36.07,0,0,1-.11-5.4,1.59,1.59,0,0,0-.06-.57c-.3-1.56,0-7.25,2.16-7.62a1.8,1.8,0,0,1,1.54.56,4.26,4.26,0,0,1,.87,1.43c3.4,8.14.71,17.42,1.14,25.92a1,1,0,0,0,.33.84c.34.2.79-.09.92-.46A2.57,2.57,0,0,0,17,115c-.22-1.79,1.26-4.58,3.35-3,1.52,1.16,1.79,3.55,1.9,5.31.05.76-.57,5.19.87,5,.7-.09.35-.65.3-1.07-.5-5-.11-10.27-.19-15.33,0-3.22.12-6.43.3-9.65.16-2.9.09-5.84.9-8.64.45-1.57,2.43-2.34,3.94-2.33a3,3,0,0,1,2.56,1.27,4.71,4.71,0,0,1,.49,2.71c-.06,4.06,0,8.17-.2,12.22-.27,4.54-.73,9.07-.66,13.62a62.92,62.92,0,0,1,.14,6.43c-.21,2.27.49,4.27,1.08,6.43a4,4,0,0,1,4.81-1.62c2.24.76,3.34,3.81,3.82,5.93.1.47.28,1,.75,1.1a.78.78,0,0,0,.76-.51c.55-1.28,0-3.46-.09-4.8A63.41,63.41,0,0,1,42.22,116a3.91,3.91,0,0,1,1.72-2.56,2.32,2.32,0,0,1,2.89.85,5,5,0,0,1,.73,3.15c-.19,5.57.13,11.12.42,16.67,0,.42.15.94.56,1s.57-.28.59-.59c.06-.6-.2-1.27-.17-1.91A14.32,14.32,0,0,0,48.9,128c.09-1.55-.58-7.57,2.2-7.12a2.5,2.5,0,0,1,1.81,1.7,7.22,7.22,0,0,1,.28,2.58l-.06,6.33c0,1.47-.31,2.9-.21,4.39a1.18,1.18,0,0,0,.3.87c1.07.94.94-1.22,1-1.75.21-1.75,1-3.47,2.73-4.12a3.36,3.36,0,0,1,4.12,1.53c.87,1.85,0,4,.75,5.85a.59.59,0,0,0,.69.39c.32-.13.37-.55.36-.89-.12-8.37-.43-16.66.09-25a5.91,5.91,0,0,1,.5-2.43,2.1,2.1,0,0,1,2-1.2A2.07,2.07,0,0,1,67,110.5a6.08,6.08,0,0,1,.21,2.17L67,123.31c-.06,2.68.13,5.36,0,8-.11,2.47-.46,4.81,0,7.27a3.13,3.13,0,0,0,1.8-1.54A20,20,0,0,1,70,135c1.67-2.16,6-1.51,7.11.91.23.52.53,1.22,1.09,1.13s.62-.72.64-1.22c.09-2.2.24-4.4.38-6.61.11-1.53-.35-4.61,1.17-5.59a1.8,1.8,0,0,1,2.11.11c.83.74.67,2,.52,3.15a19.56,19.56,0,0,0,1,9.1c-.2-.56.81-2.89.92-3.61a32.37,32.37,0,0,0,.33-3.94c.09-2.67-.22-5.38,0-8A5,5,0,0,1,87,116.6a2.78,2.78,0,0,1,3.82.4,4.18,4.18,0,0,1,.53,2c.39,4.44,0,8.94.11,13.4a.84.84,0,0,0,.15.54.56.56,0,0,0,.81-.13,1.8,1.8,0,0,0,.25-.89c.23-2.19,1.82-8.21,5.16-7a3.47,3.47,0,0,1,2,2.17,10.16,10.16,0,0,1,.42,3c.73-.2.88-1.17.87-1.93,0-2.2.06-4.4.07-6.59a28,28,0,0,1,.63-7,6.43,6.43,0,0,1,1.37-2.81,3,3,0,0,1,2.84-1,3.08,3.08,0,0,1,1.91,1.87c1.11,2.7.87,6.31,1.15,9.18,0,.15,0,.33.19.39s.44-.26.46-.53c.64-6.4.94-12.82,1.16-19.23.14-3.93.52-7.84.6-11.77s-.78-8,.34-11.77a2.93,2.93,0,0,1,1-1.66c1-.68,2.48.08,3.06,1.16a7.51,7.51,0,0,1,.53,4c-.27,5.12-.38,10.24-.43,15.36,0,6.14-.41,11.9.78,18,1.32-3.7,1-7.9,1.23-11.77a7.14,7.14,0,0,0-.11-2.3c-.28-1.11,0-3.24,1.48-3.35a2.12,2.12,0,0,1,1.93,1.19,4.74,4.74,0,0,1,.44,2.33,17.47,17.47,0,0,0,0,2.4,3.11,3.11,0,0,0,1,2.09,8.38,8.38,0,0,0,.68-3.63c.37-7.2.37-14.45.46-21.64,0-1.06,1.6-1.79,2.47-1.55a2.77,2.77,0,0,1,1.68,1.59,7.59,7.59,0,0,1,.51,2.32c.21,2.1.32,4.21.32,6.31,0,1.81-.48,3.36.59,5,.15.23.43.47.65.32s.17-.27.19-.43c.33-3.59.39-7.18.39-10.78C130.7,77.57,130.79,71.33,130.89,65.09ZM8.53,77.35c-.11,2.23-.32,4.46-.62,6.67-.19,1.4-.86,3.17-2.26,3.09S3.39,85.34,3.25,84a169.68,169.68,0,0,1-1-17.17,43.61,43.61,0,0,1,.29-8.08c.68-3.7,3.7-4.88,4.62-.11A78.18,78.18,0,0,1,8.53,77.35ZM15,81c0,1.23-.2,2.73-1.34,3.21a2.16,2.16,0,0,1-2.52-1.08c-.77-1.31-.58-3.18-.65-4.66-.1-2-.18-4-.24-6-.12-3.91-.61-7.83-.74-11.74-.24-7-.91-14.57,1-21.34.4-1.42,1.09-2.93,2.93-2.39,1.69.51,2.26,2.25,2.43,4,.22,2.33-.32,4.81-.48,7.15C14.67,59.11,15.12,70.1,15,81Zm1.74-11.41c-.05-.36-.08-.73-.11-1.09a12.3,12.3,0,0,1,.05-3.32c.32-1.6,2.85-4.28,4.44-2.19a2.13,2.13,0,0,1,.34.93c.36,2.08,1.14,8.17-1.92,8.68a2.34,2.34,0,0,1-2.3-1.34A4.89,4.89,0,0,1,16.75,69.63Zm4.91,30.74c-.06.87-.14,1.73-.23,2.6-.14,1.39,0,5.46-1.44,6.16a1.55,1.55,0,0,1-1.82-.63c-1.25-1.75-1.06-5-1-7,0-2.67.35-5.33.38-8,0-4.83-.16-9.66-.42-14.48a6.58,6.58,0,0,1,.15-2.3c.48-1.56,2.32-2.31,3.37-.81,1.23,1.73.91,3.77,1,5.83.23,4.72.4,9.45.27,14.18C21.85,97.38,21.77,98.88,21.66,100.37ZM31,65.48c-.16,4.62-.41,9.23-.78,13.87a4.55,4.55,0,0,1-.66,2.41,2.67,2.67,0,0,1-2.33.95,3.91,3.91,0,0,1-2.31-1.14,6.88,6.88,0,0,1-1.87-3.91A43.46,43.46,0,0,1,23,71.84c-.23-7.87.27-15.79.58-23.65q.24-6.13.26-12.28c0-2.92-.45-7,2.67-8.67a3.31,3.31,0,0,1,4.57,1.48c.75,1.63.4,3.27.25,5-.17,2.06,0,4.21,0,6.28C31.35,48.5,31.32,57,31,65.48ZM48.85,32.11a7.81,7.81,0,0,1,.07,1.53c-.09,4.78-.15,9.56-.23,14.34s-.35,9.75-.13,14.62c.21,4.69,1,9.51-.67,14.05A2,2,0,0,1,47,77.86a1.41,1.41,0,0,1-1.59-.49c-1.77-2.13-2.68-6-2.65-8.58,0-3,.5-6,.55-9.05q.18-11.41-.06-22.81a11.84,11.84,0,0,1,.26-3.47c.54-2,4.3-5.12,5.26-1.63A2.86,2.86,0,0,1,48.85,32.11ZM40.69,110c-.28,3.78-.75,7.55-1.17,11.31a3.45,3.45,0,0,1-.84,2.29,2.55,2.55,0,0,1-2.31.47,4.38,4.38,0,0,1-3.13-1.24,4.49,4.49,0,0,1-.62-2.76c0-3.09.12-6.16.1-9.25a27.11,27.11,0,0,1,1.08-9.27c1-2.94,4.88-2.51,6.35-.07a8.05,8.05,0,0,1,.77,4.54C40.87,107.37,40.8,108.7,40.69,110Zm.6-42.67c0,1.11-.07,2.21-.13,3.31,0,3.85,0,7.73-.22,11.58-.19,3.57.25,7.31-.59,10.8a5.38,5.38,0,0,1-1.24,2.61c-1.72,1.71-4.4.2-5.17-1.77a7.57,7.57,0,0,1-.39-2.42c-.35-6.61-.91-13.17-1.12-19.78-.11-3.46-.15-6.93,0-10.39s.7-6.72.75-10.06a12.22,12.22,0,0,1,.69-3.17c1.15-2.82,5.49-4.45,7.29-1.36.76,1.3.39,2.88.41,4.38C41.6,56.5,41.41,62,41.29,67.36Zm1.44-41a6.78,6.78,0,0,1-.14-1.68c0-3.8-.19-7.56-.27-11.35a7.19,7.19,0,0,1,.16-2.07c.71-2.55,4.07-3.34,5.37-.79a7.9,7.9,0,0,1,.65,3.05,40.46,40.46,0,0,1-.3,10.66A5.7,5.7,0,0,1,46.78,27a3,3,0,0,1-3.06.69,2.16,2.16,0,0,1-1-1.35Zm5.75,66.38c-.18,5-.88,10-1.36,14.92A2.79,2.79,0,0,1,45.83,110a2.73,2.73,0,0,1-2.76-.62,5,5,0,0,1-.86-3.09,81.42,81.42,0,0,1,.31-10.24c.33-4,.06-8,.48-11.92a5.82,5.82,0,0,1,2.1-3,2.06,2.06,0,0,1,3.11.58A3.83,3.83,0,0,1,48.43,83C48.59,86.26,48.6,89.49,48.48,92.72ZM50.31,24c0-.26,0-.51,0-.76a3,3,0,0,1,.22-1.5,1.49,1.49,0,0,1,2.11-.43,2.81,2.81,0,0,1,1,2.49c.13,6.25.08,12.54.34,18.78a3,3,0,0,1-.23,1.64,1.68,1.68,0,0,1-2.12.64c-1.58-.72-1.27-3.35-1.29-4.75,0-2.24.14-4.49.25-6.73C50.68,30.23,50.45,27.16,50.31,24Zm-.69,31.23a21.33,21.33,0,0,1,.14-2.64c.14-1.24.19-2.88.92-4,1.29-1.9,2.93.52,3.25,1.94a11.49,11.49,0,0,1,.17,3c-.05,2.28,0,4.75-.94,6.87a1.66,1.66,0,0,1-.66.85,1.19,1.19,0,0,1-1.3-.24,3,3,0,0,1-.72-1.19A13.27,13.27,0,0,1,49.62,55.24ZM53.9,92.57c-.23,7-.76,13.9-.93,20.88a12.52,12.52,0,0,1-.34,3.17,2.22,2.22,0,0,1-.86,1.32,1.77,1.77,0,0,1-2.27-.85,5.09,5.09,0,0,1-.44-2.63c.19-15.39.67-30.8.91-46.2,0-1.35.36-4.73,2.58-4.11A2.38,2.38,0,0,1,54,65.77,6.92,6.92,0,0,1,54.23,68C54,76.19,54.17,84.41,53.9,92.57ZM69.57,82.23c0-.11,0-.23,0-.34q.33-11.81.64-23.63a12.19,12.19,0,0,1,.61-4.17,4.13,4.13,0,0,1,3-2.71,3.89,3.89,0,0,1,3.92,2.53c.63,1.58.21,3.22,0,4.85q-.3,3.1-.44,6.23c-.24,5.2,0,10.37.06,15.56a11.5,11.5,0,0,1-.85,5.32c-.84,1.62-2.76,2.82-4.48,2.22a3.88,3.88,0,0,1-2.24-2.63A10.59,10.59,0,0,1,69.57,82.23Zm-6.66-67.5c.28-2.41,1-4.18,2.75-3.9a3,3,0,0,1,2.07,1.81,8.39,8.39,0,0,1,.52,2.82c.71,10.4.84,20.83,1,31.26a20.41,20.41,0,0,1-.5,5.84c-.26.89-.83,1.88-1.75,1.91a1.7,1.7,0,0,1-1.47-1,5,5,0,0,1-.37-1.84q-.89-13.12-1.79-26.26C63.23,23.91,62.48,18.53,62.91,14.73Zm-1,69.93c0,.67-.13,1.36-.15,2l-.15,4.75c-.17,5.39-.26,10.78-.33,16.17q-.1,7.14-.14,14.29a7.84,7.84,0,0,1-.76,4.05,3.27,3.27,0,0,1-4.36,1c-2.44-1.24-1.57-4.86-1.57-7.08.05-3.58-.16-7.18.08-10.75.25-4,.56-7.91.84-11.87.22-3,.44-6,.65-9.09a13.33,13.33,0,0,1,1.11-5.14c.93-1.83,3.51-2.37,4.52-.14A4.21,4.21,0,0,1,61.86,84.66Zm1.51-22.88a100.93,100.93,0,0,1-1.31,12.47,7.52,7.52,0,0,1-1.18,3.17,3.13,3.13,0,0,1-3,1.36c-2.26-.43-1.93-4-2-5.68-.2-3-.33-6-.41-9-.18-6-.21-12-.38-17.95a6.6,6.6,0,0,1,1.57-4.79c1.26-1.27,3.72-1.59,4.91,0a5.85,5.85,0,0,1,.88,2,48.58,48.58,0,0,1,1.08,15.72C63.48,60,63.43,60.89,63.37,61.78ZM67.18,104a4.31,4.31,0,0,1-1,2.14,1.81,1.81,0,0,1-2.73-.42c-1.16-2-1-4.46-.53-6.59.29-1.24,1.72-5.24,3.6-2.78,1.44,1.87,1.34,4.59.85,6.78C67.32,103.33,67.26,103.63,67.18,104Zm1.31-28.48c-.11,4.85-.28,9.7-.48,14.55a6.73,6.73,0,0,1-.22,1.73,2.2,2.2,0,0,1-1.05,1.33c-3.25,1.61-3.49-3.29-3.35-5,.34-4.54.72-9.1.93-13.63l.6-13.33c.07-1.46,1.79-5.54,3.23-2.69a11.88,11.88,0,0,1,.79,5.7c-.1,2.53-.24,5.05-.33,7.57C68.56,72.94,68.53,74.21,68.49,75.47Zm9.39,43.64v4.34a14.33,14.33,0,0,1-.73,5.54A4.9,4.9,0,0,1,73,132.25c-2,0-3.63-1.6-4.32-3.44a14.45,14.45,0,0,1-.47-5.83l1.29-24a14.85,14.85,0,0,1,.59-4,5.12,5.12,0,0,1,2.51-3.11,4.67,4.67,0,0,1,4.25.51c1.21.94,1.08,3,1.08,4.39ZM79.47,33a71.68,71.68,0,0,1-.71,9.94,9.61,9.61,0,0,1-1.33,4,3.8,3.8,0,0,1-3.63,1.77,3.86,3.86,0,0,1-2.71-2.55,11.5,11.5,0,0,1-.51-3.84c-.06-3.88-.13-7.77.06-11.65.13-2.91.5-6.81,4.08-7.3a4.16,4.16,0,0,1,4,2,8.2,8.2,0,0,1,.74,4.26C79.5,30.73,79.49,31.85,79.47,33Zm4.25,75c0,.61-.06,1.21,0,1.81a46,46,0,0,1-.7,8c-.17,1-.58,2.11-1.54,2.22a1.6,1.6,0,0,1-1.53-1,4.79,4.79,0,0,1-.27-1.93V106a4.6,4.6,0,0,1,.65-2.89c1.33-1.71,2.88-.05,3.23,1.39A12.46,12.46,0,0,1,83.72,107.94Zm.67-22.71q-.15,5.72-.32,11.45a6.08,6.08,0,0,1-.33,2.21,1.86,1.86,0,0,1-3.55.14,5.84,5.84,0,0,1-.49-2.34,150.21,150.21,0,0,1-.07-16.3c.07-1.77-.41-5,.57-6.56,1.18-1.89,3.58-.93,4.17.88a7.86,7.86,0,0,1,.24,2.74Q84.51,81.35,84.39,85.23Zm1.28-50c-.4,5.35-.23,10.64-.43,16S84.7,62.06,84,67.41A5.68,5.68,0,0,1,83.2,70a2,2,0,0,1-2.42.75c-.92-.51-1-1.77-1-2.83q.49-17,1-34a7.74,7.74,0,0,1,.45-2.87,2.64,2.64,0,0,1,2.18-1.71c2.89-.1,2.44,3.47,2.29,5.28C85.7,34.87,85.69,35.07,85.67,35.26Zm1.14,9.8c.2-10.52.39-21,.87-31.54a6,6,0,0,1,.32-2,1.84,1.84,0,0,1,3.52-.1A6.09,6.09,0,0,1,92,13.86c.66,12.3,1.33,24.63.28,36.9a7.56,7.56,0,0,1-.47,2.36,2.63,2.63,0,0,1-1.69,1.6,2.73,2.73,0,0,1-2.92-1.67,8,8,0,0,1-.48-3.58C86.76,48,86.79,46.53,86.81,45.06ZM92.9,89.34c-.05.5-.09,1-.11,1.33-.1,1.84-.19,3.68-.29,5.52q-.27,5.4-.56,10.8a8.8,8.8,0,0,1-.94,4.25c-.76,1.25-2.43,2.09-3.74,1.43-1.47-.74-1.65-2.73-1.64-4.38l.17-18.21c0-2.49.13-5.22,1.77-7.1a3.13,3.13,0,0,1,3.3-1.15C93.43,82.79,93.13,86.71,92.9,89.34Zm0-16.31-.24,2.17a7.1,7.1,0,0,1-1.25,3.65,3,3,0,0,1-3.47,1c-1.55-.74-1.75-2.81-1.74-4.52l.09-11.82a9.47,9.47,0,0,1,.86-4.7c.81-1.39,2.69-2.29,4.09-1.49,1.13.65,1.5,2.09,1.7,3.39A46.31,46.31,0,0,1,92.89,73Zm7.23,37.61c-.11,2.6-.26,5.21-.48,7.8a7.9,7.9,0,0,1-.64,2.93,2.46,2.46,0,0,1-4.64,0,7.64,7.64,0,0,1-.58-2.89,147.6,147.6,0,0,1,0-16c.11-2.37.26-4.72.26-7.09,0-2.11-.06-4.26,1.49-5.9a3.55,3.55,0,0,1,2.13-1.15,2.32,2.32,0,0,1,2.17.92,3.86,3.86,0,0,1,.45,2.21C100.34,97.83,100.37,104.24,100.12,110.64Zm.67-28.46a4.73,4.73,0,0,1-1.19,2,3.27,3.27,0,0,1-3.8.62C94.36,84,94.05,82,94.13,80.35A17.65,17.65,0,0,1,95,75.8a3.54,3.54,0,0,1,1.46-2.16,2.46,2.46,0,0,1,2.56.3c1.76,1.27,2.12,4.47,2.07,6.49A6.94,6.94,0,0,1,100.79,82.18Zm1.35-26.48c-.13,3.78-.47,7.56-1,11.31a8.37,8.37,0,0,1-.78,3,2.68,2.68,0,0,1-5-.12,8.46,8.46,0,0,1-.64-3.23c-.36-5.67-.19-11.29-.11-17,.12-2.41-.2-5.84.66-8.11.66-1.71,2.93-2.93,4.59-1.85,1.37.89,1.72,2.72,1.89,4.34A83.52,83.52,0,0,1,102.14,55.7Zm1.54-9.32a66.43,66.43,0,0,1,.69-11.68,4.2,4.2,0,0,1,1.17-2.77c1.28-1.07,3.38-.27,4.24,1.15a8.8,8.8,0,0,1,.82,4.86l-.28,11.94a8.58,8.58,0,0,1-.86,4.27c-.77,1.26-2.5,2.05-3.76,1.28a4.06,4.06,0,0,1-1.47-3A51.19,51.19,0,0,1,103.68,46.38Zm5.19,57.51a11.13,11.13,0,0,1-.9,2.34c-.59,1.14-1.61,2.28-2.89,2.2a2.62,2.62,0,0,1-2-1.43,6.07,6.07,0,0,1-.6-2.48,19.5,19.5,0,0,1,.34-5.39,6.69,6.69,0,0,1,.89-2.44,3,3,0,0,1,2.11-1.4c2.24-.23,3.41,2.89,3.5,4.66A12.73,12.73,0,0,1,108.87,103.89Zm1.38-32.56a173.41,173.41,0,0,1-1.12,17.34,7.84,7.84,0,0,1-1,3.55,2.72,2.72,0,0,1-3.19,1.2c-1.3-.59-1.56-2.28-1.64-3.71q-.48-9.42-.27-18.86a84.76,84.76,0,0,1,.38-9.3c.26-1.9,2.46-4.18,4.54-3.18,1.81.87,1.87,3.36,2,5.08C110.19,66.07,110.27,68.7,110.25,71.33Zm6.93-13.7c0,.65,0,1.31,0,2a65.92,65.92,0,0,1-1,11.06,5.79,5.79,0,0,1-.67,2,2.12,2.12,0,0,1-1.72,1.06,2.18,2.18,0,0,1-1.87-1.48,6.48,6.48,0,0,1-.25-2.52q.21-6.3.43-12.61c.06-1.94-1.12-8.88,2.49-8.46a2.59,2.59,0,0,1,1.93,1.53,6.87,6.87,0,0,1,.53,2.5C117.16,54.31,117.19,56,117.18,57.63Zm5.35,17.05c0,.7-.07,1.4-.11,2.09L121.5,93c-.06,1-.28,2.17-1.21,2.46a1.66,1.66,0,0,1-1.86-1,4.72,4.72,0,0,1-.34-2.24q.06-6.92.11-13.82l0-6.78c0-1,0-2,0-3,0-1.43-.74-4,1.27-4.56a2.17,2.17,0,0,1,2.32,1.25,12,12,0,0,1,.7,4.3A43,43,0,0,1,122.53,74.68ZM123,58.4a4.05,4.05,0,0,1-.41,1.23,2,2,0,0,1-3.79-.19,6.42,6.42,0,0,1-.34-2.39c0-4,.45-8.32-.09-12.31a5.56,5.56,0,0,1,.06-2.63,2.06,2.06,0,0,1,2-1.48c1.28.12,1.83,1.66,2,2.93a56.93,56.93,0,0,1,.68,13.61C123.11,57.58,123.08,58,123,58.4Zm6.47,4.25-1,10.6c-.12,1.21-.44,2.68-1.6,3a2.17,2.17,0,0,1-2.4-1.32,6.34,6.34,0,0,1-.32-2.94c.16-3.14.31-6.28.47-9.42.08-1.65,0-6.26,2.94-5.78a2.65,2.65,0,0,1,2,2,7.65,7.65,0,0,1,.08,2.94Z"/></g></svg>