<svg xmlns="http://www.w3.org/2000/svg" viewBox="0 0 155.73 155.75"><defs><style>.ae7f8c71-5b49-4be0-901a-62ba9ac55b13{fill:#d7ebe5;}.efddd125-453b-40b3-877b-ca114d824735{fill:#606163;}</style></defs><title>homepage_mockup_layers</title><g id="bd1835f0-cf61-44ab-9454-3e3671953d72" data-name="my work"><circle class="ae7f8c71-5b49-4be0-901a-62ba9ac55b13" cx="84.56" cy="84.57" r="71.18"/><path class="efddd125-453b-40b3-877b-ca114d824735" d="M12.83,108a.53.53,0,0,0,.32-.2,33.66,33.66,0,0,0,2.47-2.71A123.78,123.78,0,0,0,23,94c2.33-4.24,3.32-8.84,4.89-13.37,1.65-4.78,2.37-9.47,3.46-14.37.4-1.79.49-3.67.79-5.46a253,253,0,0,0,3.1-35.95q.1-4,.3-8.06c0-1-.23-8.34.46-8.71-1.85,1-3.65,2.09-5.4,3.24v.08A84.59,84.59,0,0,1,27.86,32c-1.42,5.65-2.92,11.28-4.57,16.86S19.4,59.56,17.9,65.1c-1.4,5.16-4,10-4.75,15.34-.64,4.67-.92,9.39-1.12,14.11-.1,2.4-.18,4.81-.28,7.22C11.73,102.26,11.83,108.12,12.83,108Z"/><path class="efddd125-453b-40b3-877b-ca114d824735" d="M55.27,4.21c-.51,2.13-.84,4.35-1.37,6.44A123.8,123.8,0,0,1,48,28.21a43.51,43.51,0,0,1-5.18,9.19c-2.05,2.75-4.62,5.16-5.8,8.46a30,30,0,0,0-1.31,8.69c-.13,2.89-2,7.46-1,10.15,1.72,0,3.33-4.42,4.12-5.62a83.62,83.62,0,0,1,5.89-7.75c3.19-3.84,6.36-7.69,9.37-11.67,1.41-1.88,3.08-3.54,4.64-5.29,2-2.3,4.62-5.09,6-7.87a39.09,39.09,0,0,0,3-9.61c.35-1.73.75-3.43,1.08-5.16C68.93,10.67,71.49.07,72,.1,70.82,0,69.6,0,68.37,0A68.4,68.4,0,0,0,56.15,1.11a.69.69,0,0,1,0,.34A23.15,23.15,0,0,0,55.27,4.21Z"/><path class="efddd125-453b-40b3-877b-ca114d824735" d="M112.19,16.5c-2.42,5.26-6.51,9.41-10.15,13.81a78.92,78.92,0,0,1-13.16,12c-3.86,2.94-8.17,5.54-11.34,9.28-2.91,3.42-4.72,7.59-7.48,11.12-2.13,2.73-4.68,5.16-6.93,7.8-.61.71-2.74,2.59-2.74,3.6,0,1.8,5-.88,6-1.46a66.54,66.54,0,0,1,6.21-3.1,39.38,39.38,0,0,0,5.82-3.3c4.16-2.91,8.37-5.19,12.08-8.76,4.11-4,8.59-8.9,11.29-14,2.21-4.16,4.7-8.17,7.14-12.2,1.24-2.06,2.48-4.13,3.66-6.22,1.07-1.92,1.89-4.24,3.23-6-1.11-1.07-2.25-2.11-3.43-3.1A1.47,1.47,0,0,1,112.19,16.5Z"/><path class="efddd125-453b-40b3-877b-ca114d824735" d="M78.75,82.2l-.14.26c-.28.5-1.06,1.13-.54,1.67.73.76,1.85-.69,2.43-1a121.56,121.56,0,0,1,16.72-8.4c4.68-1.82,9.34-3.81,14.1-5.42,5-1.69,9.35-5.68,13.35-9,1.1-.91,2.26-1.76,3.3-2.73,1.25-1.18,2.61-2.25,3.82-3.48.47-.47,2.83-2.62,2.62-3.4-.43-1.61-.93-3.2-1.47-4.77a.67.67,0,0,0-.37,0,27.1,27.1,0,0,0-6.44,3.73c-2.08,1.44-4.46,2.3-6.53,3.65-4.12,2.71-9.22,4.49-13.71,6.49a146.79,146.79,0,0,1-16,6.32c-2.92.91-5.84,4.63-7.27,7.2-.67,1.22-1.33,2.53-1.92,3.79C80,78.73,79.61,80.56,78.75,82.2Z"/><path class="efddd125-453b-40b3-877b-ca114d824735" d="M127,33.24c-.17-.26-2.92,5.19-3.07,5.59a31.5,31.5,0,0,1-3.1,6.78,32.08,32.08,0,0,1-3.57,4.33,24.07,24.07,0,0,0-2.06,2.23c-1.45,2,1.38.71,2.19.26a86.48,86.48,0,0,0,7.52-5.25A26.58,26.58,0,0,1,129,44.79c.88-.41,2.75-.78,2.71-2V42.6A67.51,67.51,0,0,0,127,33.24Z"/><path class="efddd125-453b-40b3-877b-ca114d824735" d="M114.33,26.4q-1.18,2.25-2.38,4.49c-1.88,3.54-3.42,7.14-5.54,10.57-1.53,2.47-3.15,4.9-4.79,7.3a96.94,96.94,0,0,1-12,14c-2,2,1.56.92,2.32.54,1.34-.67,2.51-1.63,3.85-2.28,5.76-2.78,11.86-5.52,16.74-9.73,3.58-3.08,5.67-7.12,7.89-11.2,1.29-2.36,5.3-7.8,4.39-10.26-.37-1-7.31-9-7.33-9l-.15.19a6.47,6.47,0,0,0-.82,1.07C115.82,23.56,115.07,25,114.33,26.4Z"/><path class="efddd125-453b-40b3-877b-ca114d824735" d="M62.63,135.46c-.54-.36-1.12-.68-1.59-1.06a29.67,29.67,0,0,1-3.12-3c-1.82-2-4.15-3.39-6.12-5.2a47.15,47.15,0,0,0-6.67-5.54,53.83,53.83,0,0,0-14.81-6.52c-1.4-.37-2.95-1.06-4.3-.6-2.16.74-3.94,2.22-6,3.16h0A68.28,68.28,0,0,0,49.05,134l1,.22a17.43,17.43,0,0,1,2.07.61,68.07,68.07,0,0,0,11.77,1.8A4.37,4.37,0,0,0,62.63,135.46Z"/><path class="efddd125-453b-40b3-877b-ca114d824735" d="M118.45,114.89a2.62,2.62,0,0,0,0-.27c-.39-2.32-3.57-2.6-5.4-2.9-3.1-.51-6-1.72-9-2.39s-6-1.43-9.12-1.84C85.05,106.19,75,109,65.16,109.6,59,110,53.24,108.73,47.21,108c-4.63-.58-11.34,0-15.45,2.47-1.84,1.1-1.06,2.2.55,2.76,2.13.74,4.26,1.4,6.36,2.25a88.45,88.45,0,0,0,9,3.4c1.51.43,3.1.5,4.6.89a67.57,67.57,0,0,0,8.35,1.6,54.82,54.82,0,0,0,7.13.7c9,0,18.07-.29,26.48,3.27q3.17,1.35,6.32,2.76a3.15,3.15,0,0,0,.7.22q2.79-1.53,5.41-3.3l.15-.13a18.67,18.67,0,0,1,2.58-2,9.54,9.54,0,0,0,1.35-1.08,29.77,29.77,0,0,1,4.68-3.85C116.48,116.94,117.48,115.94,118.45,114.89Z"/><path class="efddd125-453b-40b3-877b-ca114d824735" d="M12.57,28.89a11,11,0,0,0-.24,2.23A88,88,0,0,0,13,45.55c.37,2.54,1.13,5,1.72,7.49.54,2.31.43,4.86,1.21,7.06.49,1.38,1.67-1.11,1.79-1.46.42-1.24.38-2.59.68-3.85.49-2,1.24-4,1.85-6,1.4-4.51,3-9,4-13.61.71-3.31,1.24-6.72,1.63-10.09.16-1.33.25-2.9.28-4.21,0-1.49.15-3,.15-4.47V14.5A68.66,68.66,0,0,0,12.57,28.89Z"/><path class="efddd125-453b-40b3-877b-ca114d824735" d="M9.86,103.76h.07c.15,0,.37-.29.34-.37a12.47,12.47,0,0,1-.33-1.89C8.8,96.07,9.48,89.3,10.79,84a66.08,66.08,0,0,0,1.46-22.91c-.42-4-1.93-7.62-2.59-11.55a83,83,0,0,1-.83-13c0-.45-.05-.89-.09-1.34,0,0,0-.07-.08-.1a68.4,68.4,0,0,0,1.2,68.69Z"/><path class="efddd125-453b-40b3-877b-ca114d824735" d="M97.89,130.05a30.39,30.39,0,0,0-3-1.43c-1.51-.59-3-1.33-4.47-1.87-2.47-.89-5.15-1-7.7-1.66-5.27-1.29-10.89-.58-16.25-.37-1.86.07-3.71-.53-5.54-.66-1.08-.07-8.84-1.2-8.06.6.19.45,1.51.74,1.93,1a31.18,31.18,0,0,1,4.23,3A29.21,29.21,0,0,1,66.46,136a1.27,1.27,0,0,0,.14.17.79.79,0,0,0,.23.56c.52,0,1,0,1.54,0A68,68,0,0,0,97.89,130.05Z"/><path class="efddd125-453b-40b3-877b-ca114d824735" d="M135.16,81.08a5,5,0,0,1-.75.15c-3.21.09-6.36,1.92-9.18,3.28a50.4,50.4,0,0,0-9.45,6c-.72.57-6.9,5.11-5,5.85,1.53.6,4.4-.35,6-.35,2.88,0,5.79.17,8.65.39,2.22.17,3.22.45,5.19-.66a.87.87,0,0,1,.4-.08,68.13,68.13,0,0,0,4.48-14.56A.79.79,0,0,0,135.16,81.08Z"/><path class="efddd125-453b-40b3-877b-ca114d824735" d="M128.83,98.72c-1.38,0-2.69.53-4.1.58-1.63,0-3.26-.16-4.89-.18a50.09,50.09,0,0,1-8.67-.4c-3.78-.72-7.36.58-10.77,2.08-1.76.78-3.49,1.57-5.3,2.23-1.29.46-2.41,1.37-.28,1.93,1.25.32,2.61.53,3.89.76,2.88.52,5.68,1.33,8.53,1.92a62.25,62.25,0,0,1,8.57,2.29c1.31.47,2.59,1,3.84,1.5,2.27.93,3.82-2.54,4.87-4.05a70,70,0,0,0,5-8.51C129.42,98.73,129.2,98.7,128.83,98.72Z"/><path class="efddd125-453b-40b3-877b-ca114d824735" d="M136.35,73.84a4.42,4.42,0,0,1-.09-1.67c.13-.4-.67-.78-1-.47A5.94,5.94,0,0,1,133.15,73c-6.45,2.62-12.34,6.51-19,8.76a76.21,76.21,0,0,1-21.84,4.2,43.55,43.55,0,0,1-7.13-.06c-2.75-.38-5.51-.35-8,1.06a24.29,24.29,0,0,0-6.7,4.94,45.8,45.8,0,0,1-10.83,9.38,30.15,30.15,0,0,1-6.51,3c-.7.22-4.14.64-3.2,2,1.75,2.41,7.79.4,10,.31,3.46-.15,6.94.09,10.4.17,2.74.07,5.36-.55,8.06-.81a38.47,38.47,0,0,0,9.77-2.56c2.79-1,5.75-1.58,8.49-2.73,6.9-2.91,11.9-7.13,17.41-12.06a45,45,0,0,1,10.32-6.93c1.8-.88,3.67-1.62,5.54-2.32.69-.25,6.12-1.73,6.18-2.27s.17-1.2.23-1.81A12.73,12.73,0,0,1,136.35,73.84Z"/><path class="efddd125-453b-40b3-877b-ca114d824735" d="M136.27,61c-.2-.49-.07-1-.23-1.44A5.14,5.14,0,0,1,136,58c-.13-.86-.29-1.71-.45-2.56,0-.06-.06-.13-.1-.19a.57.57,0,0,1,0-.39c0-.18-.07-.37-.11-.56a1.19,1.19,0,0,0-.22-.12.51.51,0,0,0-.5.07c-.82,1.25-2.68,2.42-3.82,3.37-1.57,1.29-3.2,2.5-4.83,3.7-3.56,2.61-6.79,5.56-10.63,7.78a155,155,0,0,1-16.52,8c-2.76,1.19-5.53,2.36-8.28,3.58-1,.47-7.09,2.81-3,3.65a21.83,21.83,0,0,0,4.43.09,65.42,65.42,0,0,0,9.12-1.19c6-1,11.65-3.48,17.15-6,5.94-2.73,11.72-5.53,17.39-8.77a3,3,0,0,0,1.12-1.06c0-2-.13-4.05-.33-6C136.34,61.2,136.31,61.09,136.27,61Z"/><path class="efddd125-453b-40b3-877b-ca114d824735" d="M88.39,6.13C83.53,11,78.48,15.67,73.73,20.66c-5.08,5.32-9,11.22-13.45,17-3.11,4-6.75,7.9-10.15,11.8A185.49,185.49,0,0,0,36.9,66.23c-4.75,7-6.21,15.56-9.72,23.12-.87,1.88-1.77,3.75-2.71,5.59-.57,1.12-2.53,3.56-.17,3.31,2.2-.23,4.23-3,5.79-4.37C36,88.72,43.26,85.46,49.51,80.74a66.14,66.14,0,0,0,11.61-12c1.71-2.15,3.35-4.36,5.08-6.5s3.78-4.13,5.17-6.55,2.9-4.87,4.28-7.35c2.84-5.11,4.24-10.87,6.4-16.27a76.38,76.38,0,0,1,8.21-15.82c.65-.93,7-9.88,7.89-9.47a68,68,0,0,0-7.31-3A27.73,27.73,0,0,0,88.39,6.13Z"/><path class="efddd125-453b-40b3-877b-ca114d824735" d="M99.31,8.86c-1.62,2-4.56,6.41-5,7A91.12,91.12,0,0,0,85.83,29a49.64,49.64,0,0,0-3.48,10.26c-.2.82-1.75,3.93-1.46,4.5.88,1.72,18-15.33,19.3-16.48A55.22,55.22,0,0,0,110,14.51l.14-.25a68,68,0,0,0-9.8-6.33C100.2,7.86,99.82,8.24,99.31,8.86Z"/><path class="efddd125-453b-40b3-877b-ca114d824735" d="M19.67,115c1.58-1.21,2.74-2.65,4.51-3.64A42,42,0,0,1,29.79,109c4.85-1.82,10.16-2.74,15.22-4.13a57.66,57.66,0,0,0,14.87-6.8A37,37,0,0,0,71.67,86.88c3.3-5,5.85-10.58,9.66-15.27,1.37-1.68,3.21-3.41,3.61-5.63-1.57-.08-3.35,1.42-4.59,2.28A54.21,54.21,0,0,1,73.4,72.5a73.13,73.13,0,0,1-8.12,2.87,40.9,40.9,0,0,0-7.72,4q-9,5.6-18,11.3C33.93,94.29,28,97.73,22.71,102c-1.55,1.25-2.83,2.8-4.39,4-1.23,1-3.79,2-4,3.76-.1.71.92,1.58,1.4,2.16s2.4,3.48,3.31,3.42A1.42,1.42,0,0,0,19.67,115Z"/><path class="efddd125-453b-40b3-877b-ca114d824735" d="M72.57,3.22C72,5.6,71.48,8.61,71.4,9.08c-.47,2.46-1,4.9-1.53,7.35-.37,1.82,0,3.26,1.88,1.62,1.64-1.4,3.25-2.81,4.79-4.35C80.23,10,84.19,6.58,87.82,2.82A68.31,68.31,0,0,0,73.72.23C73.4.2,73,1.56,72.57,3.22Z"/><path class="efddd125-453b-40b3-877b-ca114d824735" d="M37.23,11.37c-.08,3.15-.49,6.31-.41,9.46.06,2.68.68,5.3.78,8,0,1.05-.44,10,.76,10a1.46,1.46,0,0,0,.7-.21c.09,0,.09-.23.16-.34a92,92,0,0,0,6.54-12c1.83-4.21,2.58-8.66,4-13,.65-2,.92-4,1.41-6,.13-.54,1.11-5.35,1.38-5.42a68.59,68.59,0,0,0-14.15,5C37.47,7.37,37.28,9.55,37.23,11.37Z"/></g></svg>