<svg id="e78e6538-c3a6-4418-a8f3-e00a708978e7" data-name="footer" xmlns="http://www.w3.org/2000/svg" viewBox="0 0 15.45 15.45"><defs><style>.a9c5a929-9b09-44f5-b2a4-37d51fd56e07{fill:#b0d4b2;}</style></defs><title>homepage_mockup_layers</title><path class="a9c5a929-9b09-44f5-b2a4-37d51fd56e07" d="M7.72,0a7.73,7.73,0,1,0,7.73,7.72A7.72,7.72,0,0,0,7.72,0Zm2.33,6.05L9.93,7.62H8.31V13.1h-2V7.62H5.19V6.05H6.27V5a2.91,2.91,0,0,1,.35-1.63,2,2,0,0,1,1.69-.79,7,7,0,0,1,1.95.19L10,4.38a3.65,3.65,0,0,0-.87-.13c-.43,0-.81.15-.81.57V6.05Z"/></svg>