<svg xmlns="http://www.w3.org/2000/svg" viewBox="0 0 29.38 29.11"><title>homepage_mockup_layers</title><g id="b67de0c6-7959-4699-9d70-58c62cbdfd1b" data-name="nav bar"><path d="M14.69,0A14.56,14.56,0,1,0,29.38,14.55,14.63,14.63,0,0,0,14.69,0Zm9.69,13.84s0,1.09-2.34,1.08c0,0-2,5.64-6.74,6.42C9.5,22.28,5.42,19.4,5,17.49c0,0,3.87,3.32,6.94,0a1.63,1.63,0,0,1-.85-.25,1.48,1.48,0,0,1-.42-.71s1-.53.6-.93c0,0-2.11,0-2.23-1.31l1.24-.79a1.23,1.23,0,0,1-1,0s-1.25-.89-1-1.81l1-.1S7.5,10.34,8,9.36c0,0,.17-.85,6.17,3.1,0,0,1.06-3.73,3-4.55,0,0,.32.16.32.32,0,0,.28-.59.65-.65,0,0,.44.39.15.61,0,0,.74-.5,1.11-.25,0,0,0,.45-1.1,1,0,0,2.77.15,3.74,3.82a2.91,2.91,0,0,0,2.34-.3s.09.55-1.67,1.31C22.74,13.78,22.91,14,24.38,13.84Z"/></g></svg>