<svg xmlns="http://www.w3.org/2000/svg" viewBox="0 0 53.76 33.81"><defs><style>.a7e6816d-f537-4ad9-999d-77acdbaca3d7{fill:#2a6a7e;}</style></defs><title>homepage_mockup_layers</title><g id="a6128d35-ff82-459a-93a2-bdb31bfa4cf7" data-name="testimonials"><path class="a7e6816d-f537-4ad9-999d-77acdbaca3d7" d="M22.08,3.34C15.63,6,4.53,12.73,4.53,20.31c0,1,0,2.7,1.23,3s1.65-1,2.33-1.93c2.33-3.08,3.84-3.73,7-3.73,3.71,0,7.14,3.09,7.14,6.69,0,6.68-5.35,9.51-9.6,9.51C4.94,33.81,0,28.54,0,21.47,0,10.41,11.79,4.24,21,0Zm31.54,0c-6.45,2.7-17.55,9.39-17.55,17,0,1,0,2.7,1.23,3s1.65-1,2.33-1.93c2.33-3.08,3.84-3.73,7-3.73,3.7,0,7.13,3.09,7.13,6.69,0,6.68-5.35,9.51-9.6,9.51-7.68,0-12.62-5.27-12.62-12.34,0-11.06,11.79-17.23,21-21.47Z"/></g></svg>