<svg xmlns="http://www.w3.org/2000/svg" viewBox="0 0 126.63 125.44"><defs><style>.a376ff33-b5bf-44bb-94b6-34235429d860{fill:#fff;}</style></defs><title>white-sm-icons</title><g id="b4a0aa6f-eab5-4bfe-86c2-814823104e32" data-name="Layer 3"><path class="a376ff33-b5bf-44bb-94b6-34235429d860" d="M63.32,0C28.35,0,0,28.08,0,62.72s28.35,62.72,63.32,62.72,63.31-28.08,63.31-62.72S98.28,0,63.32,0Zm19,49.12-1,12.78H68.14v44.43H51.42V61.9H42.5V49.12h8.92V40.53c0-3.78.1-9.62,2.88-13.24,2.92-3.84,6.93-6.44,13.84-6.44,11.25,0,16,1.59,16,1.59l-2.22,13.1a30.28,30.28,0,0,0-7.19-1.07c-3.47,0-6.58,1.23-6.58,4.67v10Z"/></g></svg>