<svg xmlns="http://www.w3.org/2000/svg" viewBox="0 0 126.63 125.44"><defs><style>.ba038d76-6209-4563-86c3-11f7a6b8505e{fill:#fff;}</style></defs><title>white-sm-icons</title><g id="fca40a4a-f585-45fc-acff-4cf895d8607c" data-name="Layer 3"><path class="ba038d76-6209-4563-86c3-11f7a6b8505e" d="M63.32,1.45C28.35,1.45,0,29.53,0,64.17s28.35,62.72,63.32,62.72,63.31-28.08,63.31-62.72S98.28,1.45,63.32,1.45Zm41.75,59.67s0,4.67-10.08,4.63c0,0-8.46,24.31-29,27.65-25,4.07-42.58-8.32-44.51-16.57,0,0,16.64,14.33,29.87.12a6.9,6.9,0,0,1-3.63-1.08,6.31,6.31,0,0,1-1.81-3.07s4.12-2.28,2.57-4c0,0-9.1-.19-9.61-5.63l5.34-3.42a5.14,5.14,0,0,1-4.17,0S34.6,55.91,35.63,52l4.51-.45S32.31,46,34.5,41.78c0,0,.75-3.63,26.63,13.39,0,0,4.56-16.09,13-19.62,0,0,1.4.66,1.4,1.37,0,0,1.19-2.54,2.77-2.78,0,0,1.91,1.66.67,2.6,0,0,3.2-2.16,4.77-1.06,0,0-.13,1.93-4.74,4.33,0,0,12,.66,16.14,16.46a12.37,12.37,0,0,0,10.06-1.26s.4,2.34-7.16,5.64C98,60.85,98.73,62,105.07,61.12Z"/></g></svg>