<svg xmlns="http://www.w3.org/2000/svg" viewBox="0 0 126.63 125.44"><defs><style>.f7bdbcac-4e7f-496a-a882-92efd924941e{fill:#fff;}</style></defs><title>white-sm-icons</title><g id="e0093fd0-81cc-435a-a42e-8ca2d5fb4f5d" data-name="Layer 3"><path class="f7bdbcac-4e7f-496a-a882-92efd924941e" d="M63.32,0C28.35,0,0,28.08,0,62.72s28.35,62.72,63.32,62.72,63.31-28.08,63.31-62.72S98.28,0,63.32,0ZM74.11,84.63c-5.4,0-10.48-2.89-12.21-6.17,0,0-2.91,11.41-3.52,13.61-2.17,7.79-8.54,15.58-9,16.22a.67.67,0,0,1-1.19-.29c-.14-1-1.76-10.81.15-18.82l6.43-27a19,19,0,0,1-1.59-7.84c0-7.34,4.29-12.83,9.64-12.83,4.55,0,6.75,3.39,6.75,7.44,0,4.53-2.91,11.31-4.42,17.58-1.25,5.26,2.66,9.55,7.9,9.55,9.47,0,15.85-12.06,15.85-26.34,0-10.86-7.38-19-20.81-19C52.89,30.75,43.44,42,43.44,54.48a14.16,14.16,0,0,0,3.3,9.71c.92,1.09,1,1.52.72,2.76-.25.92-.79,3.11-1,4a1.71,1.71,0,0,1-2.5,1.24c-7-2.82-10.24-10.4-10.24-18.93,0-14.07,12-30.95,35.75-30.95,19.09,0,31.66,13.69,31.66,28.39C101.1,70.11,90.19,84.63,74.11,84.63Z"/></g></svg>