<svg xmlns="http://www.w3.org/2000/svg" viewBox="0 0 126.63 125.44"><defs><style>.b825c915-dad7-4352-b6c9-de993e8c4bc2{fill:#fff;}</style></defs><title>white-sm-icons</title><g id="fa334627-39af-4880-9b17-9d00ea452e7f" data-name="Layer 3"><path class="b825c915-dad7-4352-b6c9-de993e8c4bc2" d="M85.72,63.34c0,11.84-10,21.44-22.34,21.44s-22.33-9.6-22.33-21.44A20.64,20.64,0,0,1,42,57.23h-6.6V87.3a2.85,2.85,0,0,0,2.86,2.83h50a2.84,2.84,0,0,0,2.85-2.83V57.23H84.8A20.64,20.64,0,0,1,85.72,63.34Z"/><path class="b825c915-dad7-4352-b6c9-de993e8c4bc2" d="M63.38,76.42c8,0,14.44-6.2,14.44-13.86S71.36,48.71,63.38,48.71,49,54.92,49,62.56,55.41,76.42,63.38,76.42Z"/><path class="b825c915-dad7-4352-b6c9-de993e8c4bc2" d="M79.73,49.12h8.12a3.23,3.23,0,0,0,3.24-3.21V38.24A3.23,3.23,0,0,0,87.85,35H79.73a3.22,3.22,0,0,0-3.23,3.2v7.67A3.22,3.22,0,0,0,79.73,49.12Z"/><path class="b825c915-dad7-4352-b6c9-de993e8c4bc2" d="M63.32,0C28.35,0,0,28.08,0,62.72s28.35,62.72,63.32,62.72,63.31-28.08,63.31-62.72S98.28,0,63.32,0ZM99.24,89.17A9.21,9.21,0,0,1,90,98.31H36.61a9.21,9.21,0,0,1-9.22-9.14V36.27a9.21,9.21,0,0,1,9.22-9.14H90a9.21,9.21,0,0,1,9.22,9.14Z"/></g></svg>